# xmcd
#
# Track frame offsets:
#	150
#	17335
#	37509
#	62195
#	80843
#	117870
#	149071
#	185471
#	205906
#	239448
#	268560
#	303606
#
# Disc length: 4477 seconds
#
# Revision: 1
# Processed by: cddbd v1.5.2PL0 Copyright (c) Steve Scherf et al.
# Submitted via: audiograbber 1.83.01
#
DISCID=a6117b0c
DTITLE=The Killers - Human (Remixes)
DYEAR=2008
DGENRE=Trance
TTITLE0=Human (Armin Van Buuren Radio
TTITLE1=Human (Ferry Corsten Radio Rem
TTITLE2=Human (Thin White Duke Edit)
TTITLE3=Human (Pink Noise Radio Edit)
TTITLE4=Human (Armin Van Buuren Club R
TTITLE5=Human (Ferry Corsten Club Remi
TTITLE6=Human (Thin White Duke Club Mi
TTITLE7=Human (Ocelot Remix)
TTITLE8=Human (Armin Van Buuren Dub Re
TTITLE9=Human (Ferry Corsten Dub Remix
TTITLE10=Human (Thin White Duke Dub)
TTITLE11=Human (Pink Noise Dub)
EXTD=
EXTT0=
EXTT1=
EXTT2=
EXTT3=
EXTT4=
EXTT5=
EXTT6=
EXTT7=
EXTT8=
EXTT9=
EXTT10=
EXTT11=
PLAYORDER=
